<svg width="48" height="48" viewBox="0 0 48 48" fill="none" xmlns="http://www.w3.org/2000/svg">
<path d="M19.2 20.7874C19.2 18.1416 21.3498 15.9916 24 15.9916C26.6501 15.9916 28.7999 18.1416 28.7999 20.7874C28.7999 23.4333 26.6501 25.5833 24 25.5833C21.3498 25.5833 19.2 23.4333 19.2 20.7874Z" fill="white"/>
<path fill-rule="evenodd" clip-rule="evenodd" d="M3.19995 20.7874C3.19995 9.30807 12.5157 0 24 0C35.4842 0 44.7999 9.30807 44.7999 20.7874C44.7999 29.3443 40.5174 36.1234 35.931 40.7069C33.6325 43.0039 31.2247 44.7849 29.1623 46.0003C28.1317 46.6078 27.1685 47.0851 26.3311 47.4156C25.5405 47.7276 24.7107 47.9708 24 47.9708C23.2892 47.9708 22.4594 47.7276 21.6688 47.4156C20.8314 47.0851 19.8682 46.6078 18.8376 46.0003C16.7752 44.7849 14.3674 43.0039 12.0689 40.7069C7.48247 36.1234 3.19995 29.3443 3.19995 20.7874ZM24 12.7916C19.5845 12.7916 16 16.3723 16 20.7874C16 25.2025 19.5845 28.7833 24 28.7833C28.4154 28.7833 32 25.2025 32 20.7874C32 16.3723 28.4154 12.7916 24 12.7916Z" fill="white"/>
</svg>
